<?xml version="1.0" encoding="UTF-8"?>
<svg xmlns="http://www.w3.org/2000/svg" xmlns:xlink="http://www.w3.org/1999/xlink" viewBox="0 0 588.44 549.33">
  <defs>
    <style>
      .cls-1 {
        fill: #fff;
      }

      .cls-2 {
        isolation: isolate;
      }

      .cls-3 {
        fill: url(#linear-gradient);
        mix-blend-mode: multiply;
        opacity: .48;
      }
    </style>
    <linearGradient id="linear-gradient" x1="74.99" y1="87.95" x2="158.92" y2="165.27" gradientUnits="userSpaceOnUse">
      <stop offset="0" stop-color="#fff" stop-opacity="0"/>
      <stop offset="1" stop-color="#000"/>
    </linearGradient>
  </defs>
  <g class="cls-2">
    <g id="Layer_1" data-name="Layer 1">
      <g>
        <path class="cls-1" d="M125.1,187.13s2.54-53.92-33.57-87.49c-44.54-41.4-49.85-43.75-49.85-43.75l28.49-34.08s62.31,44,80.12,79.61c17.8,35.61,9.41,31.79,9.41,31.79l-34.59,67.14v-13.23Z"/>
        <path class="cls-3" d="M125.1,187.13s2.54-53.92-33.57-87.49c-44.54-41.4-49.85-43.75-49.85-43.75l28.49-34.08s62.31,44,80.12,79.61c17.8,35.61,9.41,31.79,9.41,31.79l-34.59,67.14v-13.23Z"/>
        <path class="cls-1" d="M549.33,481.14c-12.72-69.18-92.15-118.24-92.15-118.24-4.76-2.64-9.66-5.04-14.94-6.78-14.99-4.94-31.27-8.98-46.88-11.27-18.19-2.67-36.76-2.05-55.09-2.53-.55-.01-.95-.23-1.45-.33-11.58,5.21-24.37,8.18-37.87,8.18-51.1,0-92.67-41.57-92.67-92.67s41.57-92.67,92.67-92.67,92.67,41.57,92.67,92.67c0,27.89-12.44,52.88-32,69.88,29.79,1.32,58.94,4.38,87.66,14.6,5.67,2.02,10.92,4.69,16.01,7.6,15.33-27.26,24.18-58.64,24.18-92.08,0-103.95-84.57-188.53-188.53-188.53s-188.53,84.57-188.53,188.53,84.57,188.53,188.53,188.53c34.1,0,66.06-9.17,93.69-25.07,97.18,1.4,154.69,60.18,154.69,60.18Z"/>
        <circle class="cls-1" cx="211.58" cy="473" r="28.99"/>
        <circle class="cls-1" cx="390.63" cy="473" r="28.99"/>
      </g>
    </g>
  </g>
</svg>