<?xml version="1.0" encoding="UTF-8"?>
<svg xmlns="http://www.w3.org/2000/svg" viewBox="0 0 588.44 549.33">
  <defs>
    <style>
      .cls-1, .cls-2 {
        fill: none;
        stroke: #3b1984;
        stroke-miterlimit: 10;
        stroke-width: 8px;
      }

      .cls-3 {
        isolation: isolate;
      }

      .cls-2 {
        mix-blend-mode: multiply;
        opacity: .48;
      }
    </style>
  </defs>
  <g class="cls-3">
    <g id="Layer_1" data-name="Layer 1">
      <g>
        <path class="cls-1" d="M103.74,197.16s2.44-59.42-35.98-95.12C20.39,58,14.75,55.51,14.75,55.51l30.3-36.25s66.27,46.8,85.21,84.67c18.94,37.87,9.34,31.83,9.34,31.83"/>
        <path class="cls-2" d="M142.18,134.65s.99-7.9-11.93-30.72C109.39,67.08,45.04,19.26,45.04,19.26L14.75,55.51s5.65,2.49,53.02,46.53c38.41,35.71,35.98,95.12,35.98,95.12"/>
        <path class="cls-1" d="M456.42,382.85c-5.06-2.81-14.08-8.19-24.68-11.6-10.37-3.33-24.22-5.98-40.83-8.42-5.83-.86-13.55-1.46-21.52-1.9-19.48-1.06-38.93,1.09-57.99,5.28-6.74,1.48-13.73,2.27-20.91,2.27-54.35,0-98.56-44.21-98.56-98.56,0-31.61,14.97-59.78,38.19-77.82v-113.35c-82.27,26.04-141.78,103.76-140.11,194.91,2,109.41,92.59,197.61,202.02,196.78,21.84-.17,42.83-3.87,62.48-10.53,41.97-14.24,87.63-13.94,128.64,2.9,45.97,18.87,71.52,44.99,71.52,44.99-13.53-73.58-98.25-124.93-98.25-124.93Z"/>
        <circle class="cls-1" cx="195.44" cy="499.13" r="30.84"/>
        <circle class="cls-1" cx="385.87" cy="499.13" r="30.84"/>
      </g>
    </g>
  </g>
</svg>